<svg xmlns="http://www.w3.org/2000/svg" viewBox="0 0 1600 900" role="img" aria-labelledby="mariokart-header-title mariokart-header-desc">
  <title id="mariokart-header-title">Mario Kart 8</title>
  <desc id="mariokart-header-desc">Stylized Mechi game artwork for Mario Kart 8.</desc>
  <defs>
    <linearGradient id="bg-mariokart-h" x1="0" y1="0" x2="1" y2="1">
      <stop offset="0%" stop-color="#12172f"></stop>
      <stop offset="100%" stop-color="#143f58"></stop>
    </linearGradient>
    <linearGradient id="accent-mariokart-h" x1="0" y1="0" x2="1" y2="1">
      <stop offset="0%" stop-color="#ff6db0"></stop>
      <stop offset="100%" stop-color="#4fe0d1"></stop>
    </linearGradient>
    <radialGradient id="glow-mariokart-h" cx="78%" cy="24%" r="52%">
      <stop offset="0%" stop-color="#ff6db0" stop-opacity="0.34"></stop>
      <stop offset="100%" stop-color="#ff6db0" stop-opacity="0"></stop>
    </radialGradient>
    <pattern id="grid-mariokart-h" width="56" height="56" patternUnits="userSpaceOnUse">
      <path d="M 56 0 L 0 0 0 56" fill="none" stroke="rgba(255,255,255,0.08)" stroke-width="1"></path>
    </pattern>
  </defs>
  <rect width="1600" height="900" fill="url(#bg-mariokart-h)"></rect>
  <rect width="1600" height="900" fill="url(#grid-mariokart-h)" opacity="0.38"></rect>
  <rect width="1600" height="900" fill="url(#glow-mariokart-h)"></rect>
  <g opacity="0.9">
    <circle cx="1220" cy="250" r="200" fill="none" stroke="url(#accent-mariokart-h)" stroke-width="6" opacity="0.55"></circle>
    <circle cx="1220" cy="250" r="142" fill="none" stroke="white" stroke-width="2" opacity="0.18"></circle>
    <path d="M1080 120 L1490 210 L1320 520 L980 440 Z" fill="url(#accent-mariokart-h)" opacity="0.12"></path>
    <path d="M1000 600 L1520 420 L1510 760 L1140 860 Z" fill="url(#accent-mariokart-h)" opacity="0.14"></path>
  </g>
  <g transform="translate(88 78)">
    <rect x="0" y="0" width="114" height="34" rx="17" fill="rgba(255,255,255,0.08)" stroke="rgba(255,255,255,0.16)"></rect>
    <text x="57" y="22" text-anchor="middle" font-family="Arial, sans-serif" font-size="15" font-weight="700" fill="#ffffff" letter-spacing="2">MECHI</text>
  </g>
  <g transform="translate(1240 80)">
    <rect x="0" y="0" width="200" height="42" rx="21" fill="rgba(255,255,255,0.1)" stroke="rgba(255,255,255,0.2)"></rect>
    <text x="100" y="27" text-anchor="middle" font-family="Arial, sans-serif" font-size="16" font-weight="700" fill="#ffffff" letter-spacing="2">RANKED</text>
  </g>
  <g transform="translate(88 620)">
    <rect x="0" y="0" width="620" height="170" rx="34" fill="rgba(8,12,18,0.42)" stroke="rgba(255,255,255,0.12)"></rect>
    <text x="42" y="66" font-family="Arial, sans-serif" font-size="26" font-weight="700" fill="#4fe0d1" letter-spacing="3">DRIFT BATTLES</text>
    <text x="42" y="126" font-family="Arial, sans-serif" font-size="52" font-weight="800" fill="#ffffff">Mario Kart 8</text>
    <rect x="42" y="138" width="240" height="7" rx="3.5" fill="url(#accent-mariokart-h)"></rect>
  </g>
</svg>