<svg xmlns="http://www.w3.org/2000/svg" viewBox="0 0 900 1200" role="img" aria-labelledby="ludo-capsule-title ludo-capsule-desc">
  <title id="ludo-capsule-title">Ludo</title>
  <desc id="ludo-capsule-desc">Stylized Mechi capsule artwork for Ludo.</desc>
  <defs>
    <linearGradient id="bg-ludo-c" x1="0" y1="0" x2="1" y2="1">
      <stop offset="0%" stop-color="#111827"/>
      <stop offset="100%" stop-color="#162c2c"/>
    </linearGradient>
    <linearGradient id="gold-ludo-c" x1="0" y1="0" x2="1" y2="1">
      <stop offset="0%" stop-color="#ffd166"/>
      <stop offset="100%" stop-color="#ff9f43"/>
    </linearGradient>
    <radialGradient id="glow-ludo-c" cx="72%" cy="20%" r="60%">
      <stop offset="0%" stop-color="#32e0c4" stop-opacity="0.32"/>
      <stop offset="100%" stop-color="#32e0c4" stop-opacity="0"/>
    </radialGradient>
  </defs>
  <rect width="900" height="1200" fill="url(#bg-ludo-c)"/>
  <rect width="900" height="1200" fill="url(#glow-ludo-c)"/>
  <g opacity="0.88">
    <rect x="428" y="132" width="340" height="340" rx="58" fill="rgba(255,255,255,0.05)" stroke="rgba(255,255,255,0.12)" stroke-width="3"/>
    <rect x="494" y="198" width="84" height="84" rx="22" fill="#ff6b6b" opacity="0.9"/>
    <rect x="618" y="198" width="84" height="84" rx="22" fill="#ffd166" opacity="0.94"/>
    <rect x="494" y="322" width="84" height="84" rx="22" fill="#32e0c4" opacity="0.92"/>
    <rect x="618" y="322" width="84" height="84" rx="22" fill="#60a5fa" opacity="0.9"/>
    <circle cx="598" cy="302" r="28" fill="rgba(255,255,255,0.94)"/>
  </g>
  <g transform="translate(58 58)">
    <rect x="0" y="0" width="118" height="36" rx="18" fill="rgba(255,255,255,0.08)" stroke="rgba(255,255,255,0.16)"/>
    <text x="59" y="23" text-anchor="middle" font-family="Arial, sans-serif" font-size="15" font-weight="700" fill="#ffffff" letter-spacing="2">MECHI</text>
  </g>
  <g transform="translate(58 160)">
    <rect x="0" y="0" width="170" height="40" rx="20" fill="rgba(255,255,255,0.1)" stroke="rgba(255,255,255,0.18)"/>
    <text x="85" y="26" text-anchor="middle" font-family="Arial, sans-serif" font-size="16" font-weight="700" fill="#ffffff" letter-spacing="2">MOBILE</text>
  </g>
  <g transform="translate(58 808)">
    <rect x="0" y="0" width="784" height="254" rx="36" fill="rgba(8,12,18,0.44)" stroke="rgba(255,255,255,0.12)"/>
    <text x="42" y="72" font-family="Arial, sans-serif" font-size="24" font-weight="700" fill="#ffd166" letter-spacing="3">BOARD CLASH</text>
    <text x="42" y="144" font-family="Arial, sans-serif" font-size="58" font-weight="800" fill="#ffffff">Ludo</text>
    <rect x="42" y="164" width="280" height="8" rx="4" fill="url(#gold-ludo-c)"/>
    <text x="42" y="214" font-family="Arial, sans-serif" font-size="18" font-weight="600" fill="rgba(255,255,255,0.72)">Queue-ready local artwork with no external dependency.</text>
  </g>
</svg>
