<svg xmlns="http://www.w3.org/2000/svg" viewBox="0 0 900 1200" role="img" aria-labelledby="nba2k26-capsule-title nba2k26-capsule-desc">
  <title id="nba2k26-capsule-title">NBA 2K26</title>
  <desc id="nba2k26-capsule-desc">Stylized Mechi capsule artwork for NBA 2K26.</desc>
  <defs>
    <linearGradient id="bg-nba2k26-c" x1="0" y1="0" x2="1" y2="1">
      <stop offset="0%" stop-color="#131229"/>
      <stop offset="100%" stop-color="#2a2356"/>
    </linearGradient>
    <linearGradient id="accent-nba2k26-c" x1="0" y1="0" x2="1" y2="1">
      <stop offset="0%" stop-color="#7c5cff"/>
      <stop offset="100%" stop-color="#4fd1ff"/>
    </linearGradient>
    <radialGradient id="glow-nba2k26-c" cx="72%" cy="20%" r="60%">
      <stop offset="0%" stop-color="#7c5cff" stop-opacity="0.34"/>
      <stop offset="100%" stop-color="#7c5cff" stop-opacity="0"/>
    </radialGradient>
  </defs>
  <rect width="900" height="1200" fill="url(#bg-nba2k26-c)"/>
  <rect width="900" height="1200" fill="url(#glow-nba2k26-c)"/>
  <g opacity="0.82">
    <circle cx="650" cy="260" r="180" fill="none" stroke="url(#accent-nba2k26-c)" stroke-width="6" opacity="0.62"/>
    <path d="M520 120 L840 220 L720 560 L430 470 Z" fill="url(#accent-nba2k26-c)" opacity="0.14"/>
    <path d="M120 760 L760 570 L850 1090 L250 1160 Z" fill="url(#accent-nba2k26-c)" opacity="0.12"/>
  </g>
  <g transform="translate(58 58)">
    <rect x="0" y="0" width="118" height="36" rx="18" fill="rgba(255,255,255,0.08)" stroke="rgba(255,255,255,0.16)"/>
    <text x="59" y="23" text-anchor="middle" font-family="Arial, sans-serif" font-size="15" font-weight="700" fill="#ffffff" letter-spacing="2">MECHI</text>
  </g>
  <g transform="translate(58 160)">
    <rect x="0" y="0" width="170" height="40" rx="20" fill="rgba(255,255,255,0.1)" stroke="rgba(255,255,255,0.18)"/>
    <text x="85" y="26" text-anchor="middle" font-family="Arial, sans-serif" font-size="16" font-weight="700" fill="#ffffff" letter-spacing="2">RANKED</text>
  </g>
  <g transform="translate(58 808)">
    <rect x="0" y="0" width="784" height="254" rx="36" fill="rgba(8,12,18,0.44)" stroke="rgba(255,255,255,0.12)"/>
    <text x="42" y="72" font-family="Arial, sans-serif" font-size="24" font-weight="700" fill="#4fd1ff" letter-spacing="3">COURT RUN</text>
    <text x="42" y="144" font-family="Arial, sans-serif" font-size="58" font-weight="800" fill="#ffffff">NBA 2K26</text>
    <rect x="42" y="164" width="280" height="8" rx="4" fill="url(#accent-nba2k26-c)"/>
    <text x="42" y="214" font-family="Arial, sans-serif" font-size="18" font-weight="600" fill="rgba(255,255,255,0.72)">Queue-ready local artwork with no external dependency.</text>
  </g>
</svg>
